# xmcd CD database file
#
# Track frame offsets:
#	150
#	12495
#	25597
#	44747
#	55805
#	70280
#	82747
#	93445
#	107780
#	120525
#	133980
#	151275
#	162972
#	175262
#
# Disc length: 2479 seconds
#
# Revision: 0
# Processed by: cddbd v1.5.1PL0 Copyright (c) Steve Scherf et al.
# Submitted via: CDex 1.51
#
DISCID=b509ad0e
DTITLE=Various Artist - Legends Of The Blues
DYEAR=1996
DGENRE=Blues
TTITLE0=John Lee Hooker - I'm In The Mood
TTITLE1=Muddy Waters - Manish Boy
TTITLE2=Etta James - Baby What You Want Me To Do
TTITLE3=Howlin' Wolf - Little Red Rooster
TTITLE4=Otis Rush - So Many Roads, So Many Trains
TTITLE5=Bo Deddley I'm A Man
TTITLE6=B. B. King - Recession Blues
TTITLE7=Lowell Fulson - Reconsider Baby
TTITLE8=Big Bill Broonzy - Lonesome
TTITLE9=Koko Taylor - Wang Dang Doodle
TTITLE10=Memphis Slim - Cow Cow Blues
TTITLE11=Sonny Boy Williamson - Don't Start Me Talkin'
TTITLE12=Little Walter - Juke
TTITLE13=Elmore James - Madison Blues
EXTD=YEAR: 1996
EXTT0=
EXTT1=
EXTT2=
EXTT3=
EXTT4=
EXTT5=
EXTT6=
EXTT7=
EXTT8=
EXTT9=
EXTT10=
EXTT11=
EXTT12=
EXTT13=
PLAYORDER=
